<?xml version="1.0" encoding="UTF-8"?>
<svg width="55px" height="51px" viewBox="0 0 55 51" version="1.1" xmlns="http://www.w3.org/2000/svg" xmlns:xlink="http://www.w3.org/1999/xlink">
  <!-- Generator: Sketch 51.1 (57501) - http://www.bohemiancoding.com/sketch -->
  <title>Shape</title>
  <desc>Created with Sketch.</desc>
  <defs></defs>
  <g id="Web" stroke="none" stroke-width="1" fill="none" fill-rule="evenodd">
    <g id="Home-Copy-5" transform="translate(-1789.000000, -102.000000)" fill="#D2D2D2" fill-rule="nonzero">
      <g id="Group-3" transform="translate(66.000000, 44.000000)">
        <path d="M1756.16237,79.8290296 C1756.2559,79.8271227 1756.34518,79.8194948 1756.43233,79.808053 L1756.41957,79.80996 L1775.53752,79.80996 C1775.54815,79.80996 1775.55877,79.80996 1775.57153,79.80996 C1776.9128,79.80996 1777.999,78.8355008 1777.999,77.6322058 C1777.999,76.4289108 1776.9128,75.4544517 1775.57153,75.4544517 C1775.55877,75.4544517 1775.54815,75.4544517 1775.53539,75.4544517 L1761.97598,75.4544517 L1777.2529,61.7490934 C1777.69078,61.3543516 1777.96074,60.8127735 1777.96074,60.2120795 C1777.96074,59.0087845 1776.87241,58.0343254 1775.53114,58.0343254 C1774.86369,58.0343254 1774.25789,58.2765099 1773.82001,58.6674378 L1758.54308,72.372796 L1758.54308,60.2082656 C1758.54308,60.1987308 1758.54308,60.1891959 1758.54308,60.1777542 C1758.54308,58.9744592 1757.45688,58 1756.11561,58 C1754.77433,58 1753.68814,58.9744592 1753.68814,60.1777542 C1753.68814,60.1891959 1753.68814,60.1987308 1753.68814,60.2101726 L1753.68814,60.2082656 L1753.68814,77.3652307 C1753.67538,77.4510441 1753.66688,77.5521133 1753.66688,77.6531824 C1753.66688,78.8564774 1754.75308,79.8309366 1756.09435,79.8309366 C1756.11773,79.8309366 1756.14324,79.8309366 1756.16662,79.8290296 L1756.16237,79.8290296 Z M1744.91315,109 C1746.23955,108.98093 1747.30661,108.014099 1747.30661,106.822246 C1747.30661,106.810804 1747.30661,106.801269 1747.30661,106.789827 L1747.30661,106.791734 L1747.30661,89.3677942 C1747.30661,89.3658872 1747.30661,89.3639802 1747.30661,89.3620733 C1747.30661,89.3601663 1747.30661,89.3582593 1747.30661,89.3563524 C1747.30661,89.2934225 1747.30236,89.2304927 1747.29599,89.1694698 L1747.29811,89.1790046 C1747.29599,89.1618419 1747.29599,89.1523071 1747.29599,89.1427723 L1747.29599,89.1504002 C1747.28961,89.0855633 1747.27898,89.0302613 1747.26835,88.9749594 L1747.27048,88.9883081 C1747.2641,88.9539827 1747.25985,88.9330061 1747.2556,88.9139365 L1747.25772,88.9272852 C1747.20671,88.7156121 1747.12806,88.5268226 1747.02603,88.3551957 L1747.03241,88.3666375 C1747.01753,88.338033 1747.0069,88.3227773 1746.99627,88.3075216 L1747.00265,88.3189634 C1746.96651,88.2617544 1746.93675,88.2159872 1746.90274,88.1702201 L1746.90912,88.1778479 C1746.89424,88.1549644 1746.88361,88.1416156 1746.87298,88.1282669 L1746.87936,88.1358947 C1746.74332,87.9623609 1746.58815,87.8117106 1746.41172,87.683944 L1746.40747,87.68013 C1746.40109,87.6763161 1746.39472,87.6686883 1746.38621,87.6629674 L1746.38409,87.6610604 C1745.98872,87.3807365 1745.48707,87.2072027 1744.94078,87.1957609 L1744.93866,87.1957609 C1744.93016,87.1957609 1744.91953,87.1957609 1744.91103,87.1957609 C1744.90252,87.1957609 1744.89189,87.1957609 1744.88127,87.1957609 L1725.46148,87.1957609 C1725.45085,87.1957609 1725.44023,87.1957609 1725.42747,87.1957609 C1724.0862,87.1957609 1723,88.1702201 1723,89.3735151 C1723,90.5768101 1724.0862,91.5512692 1725.42747,91.5512692 C1725.44023,91.5512692 1725.45085,91.5512692 1725.46361,91.5512692 L1739.0209,91.5512692 L1723.7461,105.256627 C1723.29334,105.653276 1723.01275,106.204389 1723.01275,106.816525 C1723.01275,108.01982 1724.09895,108.994279 1725.44023,108.994279 C1725.46361,108.994279 1725.48912,108.994279 1725.5125,108.992372 L1725.50825,108.992372 C1726.16294,108.975209 1726.75174,108.727304 1727.17687,108.336376 L1742.45379,94.627204 L1742.45379,106.793641 C1742.45379,106.803176 1742.45379,106.812711 1742.45379,106.822246 C1742.45379,108.025541 1743.54212,109 1744.88127,109 C1744.89402,109 1744.90677,109 1744.91953,109 L1744.9174,109 L1744.91315,109 Z" id="Shape"></path>
      </g>
    </g>
  </g>
</svg>
