<?xml version="1.0" encoding="UTF-8"?>
<svg width="55px" height="51px" viewBox="0 0 55 51" version="1.1" xmlns="http://www.w3.org/2000/svg" xmlns:xlink="http://www.w3.org/1999/xlink">
    <!-- Generator: Sketch 51.1 (57501) - http://www.bohemiancoding.com/sketch -->
    <title>Shape</title>
    <desc>Created with Sketch.</desc>
    <defs></defs>
    <g id="Web" stroke="none" stroke-width="1" fill="none" fill-rule="evenodd">
        <g id="Kiosk-2" transform="translate(-1789.000000, -102.000000)" fill="#D2D2D2" fill-rule="nonzero">
            <g id="Group-3" transform="translate(66.000000, 44.000000)">
                <path d="M1775.50351,58.001907 C1775.40998,58.0038139 1775.3207,58.0114418 1775.23355,58.0228836 L1775.24631,58.0209766 L1756.12836,58.0209766 C1756.11773,58.0209766 1756.10711,58.0209766 1756.09435,58.0209766 C1754.75308,58.0209766 1753.66688,58.9954358 1753.66688,60.1987308 C1753.66688,61.4020258 1754.75308,62.3764849 1756.09435,62.3764849 C1756.10711,62.3764849 1756.11773,62.3764849 1756.13049,62.3764849 L1769.6899,62.3764849 L1754.41298,76.0818432 C1753.9751,76.476585 1753.70514,77.0181631 1753.70514,77.6188571 C1753.70514,78.8221521 1754.79346,79.7966112 1756.13474,79.7966112 C1756.80219,79.7966112 1757.40799,79.5544267 1757.84587,79.1634988 L1773.1228,65.4581406 L1773.1228,77.622671 C1773.1228,77.6322058 1773.1228,77.6417407 1773.1228,77.6531824 C1773.1228,78.8564774 1774.209,79.8309366 1775.55027,79.8309366 C1776.89155,79.8309366 1777.97774,78.8564774 1777.97774,77.6531824 C1777.97774,77.6417407 1777.97774,77.6322058 1777.97774,77.620764 L1777.97774,77.622671 L1777.97774,60.4657059 C1777.9905,60.3798925 1777.999,60.2788233 1777.999,60.1777542 C1777.999,58.9744592 1776.9128,58 1775.57153,58 C1775.54815,58 1775.52264,58 1775.49926,58.001907 L1775.50351,58.001907 Z M1725.39346,87.1957609 C1724.06707,87.2148306 1723,88.1816619 1723,89.3735151 C1723,89.3849569 1723,89.3944917 1723,89.4059335 L1723,89.4040265 L1723,106.827967 C1723,106.829874 1723,106.831781 1723,106.833688 C1723,106.835595 1723,106.837502 1723,106.839409 C1723,106.902338 1723.00425,106.965268 1723.01063,107.026291 L1723.0085,107.016756 C1723.01063,107.033919 1723.01063,107.043454 1723.01063,107.052989 L1723.01063,107.045361 C1723.01701,107.110198 1723.02763,107.1655 1723.03826,107.220802 L1723.03614,107.207453 C1723.04251,107.241778 1723.04676,107.262755 1723.05102,107.281824 L1723.04889,107.268476 C1723.0999,107.480149 1723.17855,107.668938 1723.28058,107.840565 L1723.27421,107.829123 C1723.28909,107.857728 1723.29971,107.872984 1723.31034,107.888239 L1723.30397,107.876798 C1723.3401,107.934007 1723.36986,107.979774 1723.40387,108.025541 L1723.39749,108.017913 C1723.41237,108.040797 1723.423,108.054145 1723.43363,108.067494 L1723.42725,108.059866 C1723.56329,108.2334 1723.71846,108.38405 1723.89489,108.511817 L1723.89914,108.515631 C1723.90552,108.519445 1723.9119,108.527073 1723.9204,108.532794 L1723.92252,108.534701 C1724.31789,108.815024 1724.81954,108.988558 1725.36583,109 L1725.36796,109 C1725.37646,109 1725.38709,109 1725.39559,109 C1725.40409,109 1725.41472,109 1725.42535,109 L1744.84513,109 C1744.85576,109 1744.86639,109 1744.87914,109 C1746.22042,109 1747.30661,108.025541 1747.30661,106.822246 C1747.30661,105.618951 1746.22042,104.644492 1744.87914,104.644492 C1744.86639,104.644492 1744.85576,104.644492 1744.843,104.644492 L1731.28572,104.644492 L1746.56052,90.9391334 C1747.01328,90.5424847 1747.29386,89.9913718 1747.29386,89.379236 C1747.29386,88.175941 1746.20766,87.2014818 1744.86639,87.2014818 C1744.843,87.2014818 1744.8175,87.2014818 1744.79412,87.2033888 L1744.79837,87.2033888 C1744.14367,87.2205515 1743.55487,87.4684569 1743.12974,87.8593848 L1727.85282,101.568557 L1727.85282,89.4021195 C1727.85282,89.3925847 1727.85282,89.3830499 1727.85282,89.3735151 C1727.85282,88.1702201 1726.7645,87.1957609 1725.42535,87.1957609 C1725.41259,87.1957609 1725.39984,87.1957609 1725.38709,87.1957609 L1725.38921,87.1957609 L1725.39346,87.1957609 Z" id="Shape"></path>
            </g>
        </g>
    </g>
</svg>