<?xml version="1.0" encoding="UTF-8"?>
<svg width="66px" height="66px" viewBox="0 0 66 66" version="1.1" xmlns="http://www.w3.org/2000/svg" xmlns:xlink="http://www.w3.org/1999/xlink">
    <!-- Generator: Sketch 51.1 (57501) - http://www.bohemiancoding.com/sketch -->
    <title>Shape</title>
    <desc>Created with Sketch.</desc>
    <defs></defs>
    <g id="Web" stroke="none" stroke-width="1" fill="none" fill-rule="evenodd">
        <g id="Kiosk-2" transform="translate(-1657.000000, -94.000000)" fill="#D2D2D2">
            <g id="Group-3" transform="translate(66.000000, 44.000000)">
                <path d="M1630.57233,57.7484277 C1632.92453,58.4402516 1635.27673,59.2704403 1637.3522,60.5157233 L1641.36478,56.5031447 C1642.19497,55.672956 1643.44025,55.8113208 1644.27044,56.5031447 L1650.49686,62.8679245 C1651.32704,63.5597484 1651.32704,64.9433962 1650.49686,65.7735849 L1646.48428,69.7861635 C1647.72956,71.8616352 1648.69811,74.0754717 1649.25157,76.5660377 L1655.06289,76.5660377 C1656.16981,76.5660377 1657,77.3962264 1657,78.6415094 L1657,87.4968553 C1657,88.6037736 1656.16981,89.572327 1655.06289,89.572327 L1649.25157,89.572327 C1648.69811,91.9245283 1647.72956,94.2767296 1646.48428,96.3522013 L1650.49686,100.36478 C1651.32704,101.194969 1651.32704,102.440252 1650.49686,103.27044 L1644.27044,109.496855 C1643.44025,110.327044 1642.19497,110.327044 1641.36478,109.496855 L1637.3522,105.484277 C1635.27673,106.72956 1632.92453,107.698113 1630.57233,108.251572 L1630.57233,114.062893 C1630.57233,115.169811 1629.60377,116 1628.49686,116 L1619.64151,116 C1618.39623,116 1617.56604,115.169811 1617.56604,114.062893 L1617.56604,108.251572 C1615.07547,107.698113 1612.86164,106.72956 1610.78616,105.484277 L1606.77358,109.496855 C1605.9434,110.327044 1604.55975,110.327044 1603.86792,109.496855 L1597.50314,103.27044 C1596.67296,102.440252 1596.67296,101.194969 1597.50314,100.36478 L1601.51572,96.3522013 C1600.27044,94.2767296 1599.30189,91.9245283 1598.74843,89.572327 L1593.07547,89.572327 C1591.96855,89.572327 1591,88.6037736 1591,87.4968553 L1591,78.6415094 C1591,77.3962264 1591.96855,76.5660377 1593.07547,76.5660377 L1598.74843,76.5660377 C1599.30189,74.0754717 1600.27044,71.8616352 1601.51572,69.7861635 L1597.50314,65.7735849 C1596.67296,64.9433962 1596.67296,63.5597484 1597.50314,62.8679245 L1603.86792,56.5031447 C1604.55975,55.8113208 1605.9434,55.672956 1606.77358,56.5031447 L1610.78616,60.5157233 C1612.86164,59.2704403 1615.07547,58.4402516 1617.56604,57.7484277 L1617.56604,52.0754717 C1617.56604,50.9685535 1618.39623,50 1619.64151,50 L1628.49686,50 C1629.60377,50 1630.57233,50.9685535 1630.57233,52.0754717 L1630.57233,57.7484277 Z M1624.06918,70.3396226 C1630.98742,70.3396226 1636.66038,76.0125786 1636.66038,83.0691824 C1636.66038,89.9874214 1630.98742,95.6603774 1624.06918,95.6603774 C1617.01258,95.6603774 1611.33962,89.9874214 1611.33962,83.0691824 C1611.33962,76.0125786 1617.01258,70.3396226 1624.06918,70.3396226 Z" id="Shape"></path>
            </g>
        </g>
    </g>
</svg>